<mxfile host="app.diagrams.net" agent="Mozilla/5.0 (Windows NT 10.0; Win64; x64; rv:138.0) Gecko/20100101 Firefox/138.0" version="27.0.9">
  <diagram name="Page-1" id="0dkHzYbZ3pAnxUX2YUPT">
    <mxGraphModel dx="1425" dy="766" grid="1" gridSize="10" guides="1" tooltips="1" connect="1" arrows="1" fold="1" page="1" pageScale="1" pageWidth="850" pageHeight="1100" math="0" shadow="0">
      <root>
        <mxCell id="0" />
        <mxCell id="1" parent="0" />
        <mxCell id="Aw84yJ3P4UB3LTqqaC1I-1" value="" style="edgeStyle=orthogonalEdgeStyle;html=1;endArrow=block;elbow=vertical;startArrow=block;startFill=1;endFill=1;strokeColor=#545B64;rounded=0;fontSize=11;strokeWidth=1;targetPerimeterSpacing=0;endSize=6;" parent="1" edge="1">
          <mxGeometry width="100" relative="1" as="geometry">
            <mxPoint x="110" y="1030" as="sourcePoint" />
            <mxPoint x="790" y="1030" as="targetPoint" />
          </mxGeometry>
        </mxCell>
        <mxCell id="Aw84yJ3P4UB3LTqqaC1I-10" value="" style="endArrow=classic;html=1;rounded=0;entryX=0.5;entryY=1;entryDx=0;entryDy=0;" parent="1" edge="1" target="Aw84yJ3P4UB3LTqqaC1I-152">
          <mxGeometry width="50" height="50" relative="1" as="geometry">
            <mxPoint x="425" y="460" as="sourcePoint" />
            <mxPoint x="425" y="370" as="targetPoint" />
          </mxGeometry>
        </mxCell>
        <mxCell id="Aw84yJ3P4UB3LTqqaC1I-12" value="" style="endArrow=classic;html=1;rounded=0;endSize=6;strokeWidth=1;fontSize=11;entryX=0.5;entryY=0;entryDx=0;entryDy=0;" parent="1" edge="1" target="Aw84yJ3P4UB3LTqqaC1I-151">
          <mxGeometry width="50" height="50" relative="1" as="geometry">
            <mxPoint x="280" y="530" as="sourcePoint" />
            <mxPoint x="280" y="620" as="targetPoint" />
          </mxGeometry>
        </mxCell>
        <mxCell id="Aw84yJ3P4UB3LTqqaC1I-13" value="" style="endArrow=classic;html=1;rounded=0;entryX=0.5;entryY=0;entryDx=0;entryDy=0;" parent="1" edge="1" target="Aw84yJ3P4UB3LTqqaC1I-153">
          <mxGeometry width="50" height="50" relative="1" as="geometry">
            <mxPoint x="560" y="530" as="sourcePoint" />
            <mxPoint x="560" y="620" as="targetPoint" />
          </mxGeometry>
        </mxCell>
        <mxCell id="Aw84yJ3P4UB3LTqqaC1I-151" value="&lt;p style=&quot;margin: 4px 0px 0px; text-align: center; text-decoration: underline;&quot;&gt;&lt;b&gt;Sprint 1&lt;/b&gt;&lt;/p&gt;&lt;hr size=&quot;1&quot; style=&quot;border-style:solid;&quot;&gt;&lt;p style=&quot;margin:0px;margin-left:8px;&quot;&gt;+ Dashboard configuration&lt;br&gt;+ User login&lt;br&gt;+ Policy viewing&lt;/p&gt;" style="verticalAlign=top;align=left;overflow=fill;html=1;whiteSpace=wrap;rounded=1;shadow=1;glass=0;strokeColor=default;strokeWidth=1;arcSize=15;fontFamily=Helvetica;fontSize=12;fontColor=default;fontStyle=0;horizontal=1;fillColor=none;" parent="1" vertex="1">
          <mxGeometry x="200" y="580" width="160" height="90" as="geometry" />
        </mxCell>
        <mxCell id="Aw84yJ3P4UB3LTqqaC1I-152" value="&lt;p style=&quot;margin: 4px 0px 0px; text-align: center; text-decoration: underline;&quot;&gt;&lt;b&gt;Sprint 2&lt;/b&gt;&lt;/p&gt;&lt;hr size=&quot;1&quot; style=&quot;border-style:solid;&quot;&gt;&lt;p style=&quot;margin:0px;margin-left:8px;&quot;&gt;+ Uploading documents&lt;br&gt;+ Claim submission&lt;br&gt;+ Status tracking&lt;/p&gt;" style="verticalAlign=top;align=left;overflow=fill;html=1;whiteSpace=wrap;rounded=1;shadow=1;glass=0;strokeColor=default;strokeWidth=1;arcSize=15;fontFamily=Helvetica;fontSize=12;fontColor=default;fontStyle=0;horizontal=1;fillColor=none;" parent="1" vertex="1">
          <mxGeometry x="345" y="310" width="160" height="90" as="geometry" />
        </mxCell>
        <mxCell id="Aw84yJ3P4UB3LTqqaC1I-153" value="&lt;p style=&quot;margin: 4px 0px 0px; text-align: center; text-decoration: underline;&quot;&gt;&lt;b&gt;Sprint 3&lt;/b&gt;&lt;/p&gt;&lt;hr size=&quot;1&quot; style=&quot;border-style:solid;&quot;&gt;&lt;p style=&quot;margin:0px;margin-left:8px;&quot;&gt;+ AI-powered tools&lt;br&gt;+ Feedback-based refinement&lt;/p&gt;" style="verticalAlign=top;align=left;overflow=fill;html=1;whiteSpace=wrap;rounded=1;shadow=1;glass=0;strokeColor=default;strokeWidth=1;arcSize=15;fontFamily=Helvetica;fontSize=12;fontColor=default;fontStyle=0;horizontal=1;fillColor=none;" parent="1" vertex="1">
          <mxGeometry x="480" y="580" width="160" height="90" as="geometry" />
        </mxCell>
        <mxCell id="Aw84yJ3P4UB3LTqqaC1I-155" value="Apr 10 - Apr 22" style="text;html=1;align=center;verticalAlign=middle;resizable=0;points=[];autosize=1;strokeColor=none;fillColor=none;fontFamily=Helvetica;fontSize=12;fontColor=default;fontStyle=0;horizontal=1;" parent="1" vertex="1">
          <mxGeometry x="200" y="678" width="100" height="30" as="geometry" />
        </mxCell>
        <mxCell id="Aw84yJ3P4UB3LTqqaC1I-156" value="Apr 22 - May 2 " style="text;html=1;align=center;verticalAlign=middle;resizable=0;points=[];autosize=1;strokeColor=none;fillColor=none;fontFamily=Helvetica;fontSize=12;fontColor=default;fontStyle=0;horizontal=1;" parent="1" vertex="1">
          <mxGeometry x="345" y="270" width="100" height="30" as="geometry" />
        </mxCell>
        <mxCell id="Aw84yJ3P4UB3LTqqaC1I-157" value="May 2 - May 22" style="text;html=1;align=center;verticalAlign=middle;resizable=0;points=[];autosize=1;strokeColor=none;fillColor=none;fontFamily=Helvetica;fontSize=12;fontColor=default;fontStyle=0;horizontal=1;" parent="1" vertex="1">
          <mxGeometry x="480" y="678" width="110" height="30" as="geometry" />
        </mxCell>
        <mxCell id="Aw84yJ3P4UB3LTqqaC1I-158" value="Product Roadmap Timeline" style="text;html=1;align=center;verticalAlign=middle;resizable=0;points=[];autosize=1;strokeColor=none;fillColor=none;fontFamily=Helvetica;fontSize=18;fontColor=default;fontStyle=0;horizontal=1;" parent="1" vertex="1">
          <mxGeometry x="80" y="200" width="240" height="40" as="geometry" />
        </mxCell>
        <mxCell id="Aw84yJ3P4UB3LTqqaC1I-164" value="Claim Processing" style="rounded=0;whiteSpace=wrap;html=1;shadow=1;glass=0;strokeColor=default;strokeWidth=1;align=center;verticalAlign=middle;arcSize=15;fontFamily=Helvetica;fontSize=12;fontColor=default;fontStyle=0;horizontal=1;fillColor=none;" parent="1" vertex="1">
          <mxGeometry x="185" y="890" width="120" height="60" as="geometry" />
        </mxCell>
        <mxCell id="Aw84yJ3P4UB3LTqqaC1I-165" value="Customer Account Management" style="rounded=0;whiteSpace=wrap;html=1;shadow=1;glass=0;strokeColor=default;strokeWidth=1;align=center;verticalAlign=middle;arcSize=15;fontFamily=Helvetica;fontSize=12;fontColor=default;fontStyle=0;horizontal=1;fillColor=none;" parent="1" vertex="1">
          <mxGeometry x="305" y="890" width="120" height="60" as="geometry" />
        </mxCell>
        <mxCell id="Aw84yJ3P4UB3LTqqaC1I-166" value="AI-powered Services" style="rounded=0;whiteSpace=wrap;html=1;shadow=1;glass=0;strokeColor=default;strokeWidth=1;align=center;verticalAlign=middle;arcSize=15;fontFamily=Helvetica;fontSize=12;fontColor=default;fontStyle=0;horizontal=1;fillColor=none;" parent="1" vertex="1">
          <mxGeometry x="425" y="890" width="120" height="60" as="geometry" />
        </mxCell>
        <mxCell id="Aw84yJ3P4UB3LTqqaC1I-167" value="Customer Support" style="rounded=0;whiteSpace=wrap;html=1;shadow=1;glass=0;strokeColor=default;strokeWidth=1;align=center;verticalAlign=middle;arcSize=15;fontFamily=Helvetica;fontSize=12;fontColor=default;fontStyle=0;horizontal=1;fillColor=none;" parent="1" vertex="1">
          <mxGeometry x="545" y="890" width="120" height="60" as="geometry" />
        </mxCell>
        <mxCell id="Aw84yJ3P4UB3LTqqaC1I-172" value="" style="shape=step;perimeter=stepPerimeter;whiteSpace=wrap;html=1;fixedSize=1;rounded=1;shadow=1;glass=0;strokeColor=default;strokeWidth=1;align=center;verticalAlign=middle;arcSize=15;fontFamily=Helvetica;fontSize=12;fontColor=default;fontStyle=0;horizontal=1;fillColor=none;" parent="1" vertex="1">
          <mxGeometry x="125" y="450" width="600" height="80" as="geometry" />
        </mxCell>
        <mxCell id="Aw84yJ3P4UB3LTqqaC1I-176" value="" style="endArrow=none;html=1;rounded=0;fontFamily=Helvetica;fontSize=12;fontColor=default;fontStyle=0;horizontal=1;exitX=0.507;exitY=1.02;exitDx=0;exitDy=0;exitPerimeter=0;" parent="1" edge="1">
          <mxGeometry width="50" height="50" relative="1" as="geometry">
            <mxPoint x="425" y="530" as="sourcePoint" />
            <mxPoint x="425" y="450" as="targetPoint" />
          </mxGeometry>
        </mxCell>
        <mxCell id="Aw84yJ3P4UB3LTqqaC1I-181" value="AI-powered Services" style="text;html=1;align=center;verticalAlign=middle;whiteSpace=wrap;rounded=0;fontFamily=Helvetica;fontSize=12;fontColor=default;fontStyle=0;horizontal=1;" parent="1" vertex="1">
          <mxGeometry x="425" y="450" width="135" height="80" as="geometry" />
        </mxCell>
        <mxCell id="Aw84yJ3P4UB3LTqqaC1I-183" value="" style="endArrow=none;html=1;rounded=0;fontFamily=Helvetica;fontSize=12;fontColor=default;fontStyle=0;horizontal=1;exitX=0.507;exitY=1.02;exitDx=0;exitDy=0;exitPerimeter=0;" parent="1" edge="1">
          <mxGeometry width="50" height="50" relative="1" as="geometry">
            <mxPoint x="560" y="530" as="sourcePoint" />
            <mxPoint x="560" y="450" as="targetPoint" />
          </mxGeometry>
        </mxCell>
        <mxCell id="Aw84yJ3P4UB3LTqqaC1I-184" value="" style="endArrow=none;html=1;rounded=0;fontFamily=Helvetica;fontSize=12;fontColor=default;fontStyle=0;horizontal=1;exitX=0.507;exitY=1.02;exitDx=0;exitDy=0;exitPerimeter=0;" parent="1" edge="1">
          <mxGeometry width="50" height="50" relative="1" as="geometry">
            <mxPoint x="280" y="530" as="sourcePoint" />
            <mxPoint x="280" y="450" as="targetPoint" />
          </mxGeometry>
        </mxCell>
        <mxCell id="Aw84yJ3P4UB3LTqqaC1I-185" value="Claim Processing" style="text;html=1;align=center;verticalAlign=middle;whiteSpace=wrap;rounded=0;fontFamily=Helvetica;fontSize=12;fontColor=default;fontStyle=0;horizontal=1;" parent="1" vertex="1">
          <mxGeometry x="145" y="450" width="135" height="80" as="geometry" />
        </mxCell>
        <mxCell id="Aw84yJ3P4UB3LTqqaC1I-186" value="Customer Support" style="text;html=1;align=center;verticalAlign=middle;whiteSpace=wrap;rounded=0;fontFamily=Helvetica;fontSize=12;fontColor=default;fontStyle=0;horizontal=1;" parent="1" vertex="1">
          <mxGeometry x="560" y="450" width="135" height="80" as="geometry" />
        </mxCell>
        <mxCell id="Aw84yJ3P4UB3LTqqaC1I-187" value="Customer Account Management" style="text;html=1;align=center;verticalAlign=middle;whiteSpace=wrap;rounded=0;fontFamily=Helvetica;fontSize=12;fontColor=default;fontStyle=0;horizontal=1;" parent="1" vertex="1">
          <mxGeometry x="280" y="450" width="145" height="80" as="geometry" />
        </mxCell>
      </root>
    </mxGraphModel>
  </diagram>
</mxfile>
